<?xml version="1.0" encoding="iso-8859-1"?>
<!-- Generator: Adobe Illustrator 19.0.0, SVG Export Plug-In . SVG Version: 6.00 Build 0)  -->
<svg xmlns="http://www.w3.org/2000/svg" xmlns:xlink="http://www.w3.org/1999/xlink" version="1.1" id="Layer_1" x="0px" y="0px" viewBox="0 0 512.001 512.001" style="enable-background:new 0 0 512.001 512.001;" xml:space="preserve" width="512" height="512">
<g>
	<g>
		<g>
			<path style="fill:#6DD354;" d="M256,104.467c-8.284,0-15,6.716-15,15v377.533c0,8.284,6.716,15,15,15s15-6.716,15-15V119.467     C271,111.183,264.284,104.467,256,104.467z"/>
			<path style="fill:#55A341;" d="M256,104.467v407.533c8.284,0,15-6.716,15-15V119.467C271,111.183,264.284,104.467,256,104.467z"/>
		</g>
		<g>
			<path style="fill:#6DD354;" d="M223.318,292.771c-7.556,3.397-16.435,0.025-19.831-7.531l-67.05-149.155     c-3.397-7.556-0.025-16.435,7.531-19.831c7.556-3.397,16.435-0.025,19.831,7.531l67.05,149.155     C234.245,280.495,230.873,289.374,223.318,292.771z"/>
			<path style="fill:#55A341;" d="M223.318,292.771l-79.351-176.518c7.556-3.397,16.435-0.025,19.831,7.531l67.05,149.155     C234.245,280.495,230.873,289.374,223.318,292.771z"/>
		</g>
		<g>
			<path style="fill:#6DD354;" d="M367.953,116.253c-7.556-3.397-16.435-0.025-19.831,7.531l-67.05,149.155     c-3.397,7.556-0.025,16.435,7.531,19.831s16.435,0.025,19.831-7.531l67.05-149.155     C378.881,128.528,375.509,119.649,367.953,116.253z"/>
			<path style="fill:#55A341;" d="M367.953,116.253l-79.351,176.518c7.556,3.397,16.435,0.025,19.831-7.531l67.05-149.155     C378.881,128.528,375.509,119.649,367.953,116.253z"/>
		</g>
	</g>
	<g>
		<path style="fill:#FF6D66;" d="M163.036,9.582c-2.072-4.6-6.317-7.85-11.298-8.649c-4.982-0.802-10.03,0.957-13.438,4.677    l-29.738,32.457l-44.014,0.765c-5.044,0.087-9.706,2.705-12.407,6.965c-2.701,4.26-3.08,9.593-1.009,14.193l22.194,49.27    c6.732,14.946,18.881,26.375,34.21,32.183c7.071,2.679,14.426,4.013,21.768,4.013c8.573,0,17.128-1.821,25.178-5.448    c30.852-13.897,44.646-50.303,30.749-81.155L163.036,9.582z"/>
		<path style="fill:#C44352;" d="M459.86,45.797c-2.701-4.261-7.363-6.878-12.407-6.965l-44.014-0.765L373.701,5.609    c-3.408-3.719-8.454-5.478-13.438-4.677c-4.98,0.8-9.226,4.05-11.298,8.649L326.77,58.852    c-13.896,30.852-0.103,67.258,30.749,81.155h-0.001c8.052,3.627,16.604,5.448,25.179,5.448c7.341,0,14.697-1.334,21.768-4.013    c15.329-5.808,27.478-17.237,34.21-32.182l22.194-49.271C462.94,55.39,462.561,50.057,459.86,45.797z"/>
		<path style="fill:#FF6D66;" d="M310.795,2.474c-4.212-2.774-9.516-3.247-14.151-1.255L256.21,18.598L215.771,1.219    c-4.634-1.992-10.135-1.521-14.347,1.255c-4.213,2.775-6.924,7.481-6.924,12.526v54.038c0,33.838,27.662,61.367,61.5,61.367    s61.5-27.529,61.5-61.367V15.001C317.5,9.956,315.008,5.249,310.795,2.474z"/>
		<path style="fill:#C44352;" d="M310.795,2.474c-4.212-2.774-9.516-3.247-14.151-1.255L256.21,18.598L256,130.405    c33.838,0,61.5-27.529,61.5-61.367V15.001C317.5,9.956,315.008,5.249,310.795,2.474z"/>
	</g>
	<path style="fill:#85B4CF;" d="M404.694,175.171c-2.821-3.896-7.34-6.17-12.15-6.17H118.9c-4.811,0-9.329,2.273-12.15,6.17   c-2.82,3.896-3.602,8.893-2.1,13.463l13.98,42.532c16.053,48.841,39.553,94.659,69.846,136.189l14.142,19.385l0.119,83.349   c0.012,8.276,6.724,14.912,15,14.912h76.099c8.284,0,15.165-6.585,15.165-14.869v-83.409l14.049-19.373   c30.295-41.534,53.753-87.356,69.803-136.193l13.961-42.523C408.316,184.063,407.514,179.067,404.694,175.171z"/>
	<path style="fill:#4D6F82;" d="M404.694,175.171c-2.821-3.896-7.34-6.17-12.15-6.17H256l0,316h37.835   c8.284,0,15.165-6.585,15.165-14.869v-83.409l14.049-19.373c30.295-41.534,53.753-87.356,69.803-136.193l13.961-42.523   C408.316,184.063,407.514,179.067,404.694,175.171z"/>
	<path style="fill:#F0F3F5;" d="M312.546,367.001h-113.65c-8.284,0-15,6.716-15,15s6.716,15,15,15h113.65c8.284,0,15-6.716,15-15   S320.83,367.001,312.546,367.001z"/>
	<path style="fill:#AED4E6;" d="M312.546,367.001H256v30h56.546c8.284,0,15-6.716,15-15S320.83,367.001,312.546,367.001z"/>
</g>















</svg>
